<?xml version="1.0" encoding="UTF-8"?>
<!DOCTYPE svg PUBLIC "-//W3C//DTD SVG 1.1//EN" "http://www.w3.org/Graphics/SVG/1.1/DTD/svg11.dtd">
<!-- Creator: CorelDRAW -->
<svg xmlns="http://www.w3.org/2000/svg" xml:space="preserve" width="79.5436mm" height="79.5436mm" version="1.1" style="shape-rendering:geometricPrecision; text-rendering:geometricPrecision; image-rendering:optimizeQuality; fill-rule:evenodd; clip-rule:evenodd"
viewBox="0 0 1034.02 1034.02"
 xmlns:xlink="http://www.w3.org/1999/xlink"
 xmlns:xodm="http://www.corel.com/coreldraw/odm/2003">
 <defs>
  <style type="text/css">
   <![CDATA[
    .str0 {stroke:#FEFEFE;stroke-width:19.5;stroke-linecap:round;stroke-linejoin:round;stroke-miterlimit:22.9256}
    .fil2 {fill:none}
    .fil1 {fill:#FEFEFE;fill-rule:nonzero}
    .fil0 {fill:url(#id0)}
   ]]>
  </style>
  <linearGradient id="id0" gradientUnits="userSpaceOnUse" x1="81.78" y1="796.18" x2="818.84" y2="274.15">
   <stop offset="0" style="stop-opacity:1; stop-color:#148C76"/>
   <stop offset="1" style="stop-opacity:1; stop-color:#107369"/>
  </linearGradient>
 </defs>
 <g id="Capa_x0020_1">
  <metadata id="CorelCorpID_0Corel-Layer"/>
  <circle class="fil0" cx="517.01" cy="517.01" r="517.01"/>
  <g id="_1944405608240">
   <path class="fil1" d="M675.45 705.9c-29.47,0 -55.85,-7.22 -79.15,-21.65 -23.3,-14.43 -41.49,-34.05 -54.57,-58.85 -13.08,-24.81 -19.62,-52.09 -19.62,-81.86 0,-28.56 5.71,-54.5 17.14,-77.8 11.43,-23.3 27.74,-41.72 48.93,-55.25 21.2,-13.53 45.78,-20.29 73.74,-20.29 25.86,0 48.18,3.38 66.97,10.15 18.79,6.76 32.55,15.41 41.27,25.93 4.81,6.01 7.89,13.98 9.25,23.9 1.35,9.92 2.03,22.25 2.03,36.98l-9.02 0c-5.71,-26.46 -16.54,-46.23 -32.47,-59.31 -15.93,-13.08 -37.43,-19.62 -64.49,-19.62 -24.35,0 -44.65,6.39 -60.89,19.17 -16.23,12.78 -28.19,29.39 -35.85,49.84 -7.67,20.45 -11.5,42.54 -11.5,66.3 0,50.81 9.92,87.57 29.77,110.27 19.84,22.7 46,34.05 78.47,34.05 15.33,0 28.41,-1.35 39.24,-4.06 10.82,-2.71 21.05,-6.62 30.67,-11.73l0 -78.47c0,-10.22 1.65,-19.09 4.96,-26.61 3.31,-7.52 10.45,-13.76 21.42,-18.72 10.97,-4.96 26.98,-7.44 48.03,-7.44l0 9.02c-13.53,0 -22.55,3.46 -27.06,10.37 -4.51,6.92 -6.76,17.74 -6.76,32.47l0 84.79c-16.24,9.92 -33.22,17.14 -50.96,21.65 -17.74,4.51 -37.58,6.76 -59.53,6.76z"/>
   <path class="fil1" d="M607.78 621.59c-21.65,0 -38.48,-3.31 -50.51,-9.92 -12.03,-6.61 -20.52,-16.91 -25.48,-30.89 -4.96,-13.98 -7.44,-32.7 -7.44,-56.15l0 -173.63 -112.75 250.3 -9.02 0 -117.26 -254.81 0 254.81 -18.04 0 0 -297.66 42.84 0 108.24 234.52 105.98 -234.52 40.59 0 0 220.99c0,27.96 3.53,49.61 10.6,64.95 7.06,15.33 17.81,23 32.25,23l0 9.02z"/>
  </g>
  <path class="fil2 str0" d="M862.06 924.52c0,0 10.03,-95.16 -82.15,-108.68 -92.19,-13.53 -311.66,104.27 -362.23,9.2"/>
  <path class="fil2 str0" d="M417.68 825.04c0,0 -132.29,66 -188.41,24.66 -56.12,-41.34 96.27,-63.67 188.41,-24.66z"/>
  <path class="fil2 str0" d="M417.68 825.04c0,0 -203.53,-42.06 -192.82,-114.61 10.71,-72.55 170.58,28.78 192.82,114.61z"/>
  <path class="fil2 str0" d="M417.68 825.04c0,0 -170.36,-177.92 -74.84,-189.61 95.52,-11.69 90.4,153.24 74.84,189.61z"/>
 </g>
</svg>
