<?xml version="1.0" encoding="UTF-8"?>
<!DOCTYPE svg PUBLIC "-//W3C//DTD SVG 1.1//EN" "http://www.w3.org/Graphics/SVG/1.1/DTD/svg11.dtd">
<!-- Creator: CorelDRAW -->
<svg xmlns="http://www.w3.org/2000/svg" xml:space="preserve" width="51.1291mm" height="48.5129mm" version="1.1" style="shape-rendering:geometricPrecision; text-rendering:geometricPrecision; image-rendering:optimizeQuality; fill-rule:evenodd; clip-rule:evenodd"
viewBox="0 0 255.75 242.66"
 xmlns:xlink="http://www.w3.org/1999/xlink"
 xmlns:xodm="http://www.corel.com/coreldraw/odm/2003">
 <defs>
  <style type="text/css">
   <![CDATA[
    .str0 {stroke:#148C76;stroke-width:7.5;stroke-linecap:round;stroke-linejoin:round;stroke-miterlimit:22.9256}
    .fil1 {fill:none}
    .fil0 {fill:#148C76;fill-rule:nonzero}
   ]]>
  </style>
 </defs>
 <g id="Capa_x0020_1">
  <metadata id="CorelCorpID_0Corel-Layer"/>
  <g id="_1944403974368">
   <path class="fil0" d="M180.07 154.78c-11.34,0 -21.49,-2.78 -30.46,-8.33 -8.97,-5.55 -15.97,-13.1 -21,-22.65 -5.03,-9.54 -7.55,-20.04 -7.55,-31.5 0,-10.99 2.2,-20.97 6.59,-29.94 4.4,-8.97 10.67,-16.05 18.83,-21.26 8.16,-5.21 17.61,-7.81 28.37,-7.81 9.95,0 18.54,1.3 25.77,3.9 7.23,2.6 12.52,5.93 15.88,9.98 1.85,2.31 3.04,5.38 3.56,9.2 0.52,3.82 0.78,8.56 0.78,14.23l-3.47 0c-2.2,-10.18 -6.36,-17.79 -12.49,-22.82 -6.13,-5.03 -14.4,-7.55 -24.82,-7.55 -9.37,0 -17.18,2.46 -23.43,7.38 -6.25,4.92 -10.85,11.31 -13.8,19.18 -2.95,7.87 -4.43,16.37 -4.43,25.51 0,19.55 3.82,33.69 11.45,42.43 7.64,8.73 17.7,13.1 30.2,13.1 5.9,0 10.93,-0.52 15.1,-1.56 4.16,-1.04 8.1,-2.55 11.8,-4.51l0 -30.2c0,-3.93 0.64,-7.35 1.91,-10.24 1.27,-2.89 4.02,-5.29 8.24,-7.2 4.22,-1.91 10.38,-2.86 18.48,-2.86l0 3.47c-5.21,0 -8.68,1.33 -10.41,3.99 -1.74,2.66 -2.6,6.83 -2.6,12.49l0 32.62c-6.25,3.82 -12.78,6.59 -19.61,8.33 -6.83,1.74 -14.46,2.6 -22.91,2.6z"/>
   <path class="fil0" d="M154.03 122.34c-8.33,0 -14.81,-1.27 -19.44,-3.82 -4.63,-2.54 -7.9,-6.51 -9.8,-11.89 -1.91,-5.38 -2.86,-12.58 -2.86,-21.61l0 -66.81 -43.38 96.31 -3.47 0 -45.12 -98.05 0 98.05 -6.94 0 0 -114.53 16.49 0 41.65 90.24 40.78 -90.24 15.62 0 0 85.03c0,10.76 1.36,19.09 4.08,24.99 2.72,5.9 6.85,8.85 12.41,8.85l0 3.47z"/>
  </g>
  <path class="fil1 str0" d="M251.87 238.91c0,0 3.86,-36.61 -31.61,-41.82 -35.47,-5.2 -119.92,40.12 -139.38,3.54"/>
  <path class="fil1 str0" d="M80.88 200.63c0,0 -50.9,25.4 -72.5,9.49 -21.59,-15.91 37.04,-24.5 72.5,-9.49z"/>
  <path class="fil1 str0" d="M80.88 200.63c0,0 -78.32,-16.18 -74.19,-44.1 4.12,-27.92 65.64,11.07 74.19,44.1z"/>
  <path class="fil1 str0" d="M80.88 200.63c0,0 -65.55,-68.46 -28.8,-72.96 36.76,-4.5 34.78,58.96 28.8,72.96z"/>
 </g>
</svg>
