<?xml version="1.0" encoding="UTF-8"?>
<!DOCTYPE svg PUBLIC "-//W3C//DTD SVG 1.1//EN" "http://www.w3.org/Graphics/SVG/1.1/DTD/svg11.dtd">
<!-- Creator: CorelDRAW -->
<svg xmlns="http://www.w3.org/2000/svg" xml:space="preserve" width="2.1844mm" height="3.173mm" version="1.1" style="shape-rendering:geometricPrecision; text-rendering:geometricPrecision; image-rendering:optimizeQuality; fill-rule:evenodd; clip-rule:evenodd"
viewBox="0 0 8.13 11.82"
 xmlns:xlink="http://www.w3.org/1999/xlink"
 xmlns:xodm="http://www.corel.com/coreldraw/odm/2003">
 <defs>
  <style type="text/css">
   <![CDATA[
    .str0 {stroke:#FEFEFE;stroke-width:0.26;stroke-linecap:round;stroke-linejoin:round;stroke-miterlimit:22.9256}
    .fil1 {fill:none}
    .fil0 {fill:#FEFEFE}
   ]]>
  </style>
 </defs>
 <g id="Capa_x0020_1">
  <metadata id="CorelCorpID_0Corel-Layer"/>
  <path class="fil0" d="M0.6 7.47c0.14,0.27 0.62,0.32 0.79,0.48 -0.24,0.13 -0.52,-0.07 -0.76,0.22 0.03,0.31 0.4,0.28 0.31,0.66 -0.06,0.28 -0.25,0.45 -0.08,0.79 0.26,0.51 0.94,0.4 1.57,0.37 0.97,-0.04 1.54,0.3 1.91,1.06 0.07,0.15 0.24,0.58 0.25,0.76l-0.23 -0.04c-0.74,-2.52 -2.5,-1.06 -3.48,-1.77 -0.62,-0.45 -0.13,-1.24 -0.14,-1.27 -0.01,-0.11 -0.49,-0.38 -0.29,-0.74 0.06,-0.11 0.12,-0.09 0.22,-0.15 -0.13,-0.1 -0.31,-0.12 -0.34,-0.32 -0.06,-0.4 0.68,-0.46 0.1,-0.82 -0.86,-0.53 -0.24,-0.96 0.02,-1.21 0.25,-0.24 0.49,-0.4 0.72,-0.68 0.72,-0.86 0.33,-1.07 0.54,-2.18 0.15,-0.78 0.53,-1.23 1.12,-1.64 0.07,-0.05 0.14,-0.11 0.2,-0.12 0.12,-0.02 0.18,0.06 0.12,0.15 -0.04,0.07 -1.25,0.57 -1.28,2.16 -0.01,0.52 0.07,0.8 -0.15,1.24 -0.33,0.67 -0.86,0.99 -1.33,1.43 -0.42,0.39 0.01,0.52 0.29,0.74 0.51,0.39 -0.02,0.62 -0.11,0.87z"/>
  <path class="fil0" d="M2.16 3.63c0.01,-0.16 0.13,-0.15 0.47,-0.12 0.52,0.05 1.1,0.56 1.12,0.68 0.06,0.32 -0.46,-0.17 -0.66,-0.28 -0.56,-0.31 -0.76,-0.14 -0.93,-0.27z"/>
  <path class="fil0" d="M3.31 5.07c-0.06,0.13 0.04,0.04 -0.11,0.11 -0.13,0.06 -0.45,0.08 -0.6,0.06 -0.64,-0.05 -0.74,-0.5 -0.41,-0.35 0.46,0.22 0.66,0.11 1.13,0.17z"/>
  <path class="fil1 str0" d="M3.23 9.26c0,0 1.35,0.26 1.66,-1.05 0.3,-1.3 -1.12,-4.59 0.3,-5.2"/>
  <path class="fil1 str0" d="M5.2 3.01c0,0 -0.79,-1.98 -0.13,-2.73 0.66,-0.75 0.8,1.46 0.13,2.73z"/>
  <path class="fil1 str0" d="M5.2 3.01c0,0 0.85,-2.87 1.88,-2.63 1.03,0.24 -0.62,2.41 -1.88,2.63z"/>
  <path class="fil1 str0" d="M5.2 3.01c0,0 2.76,-2.23 2.81,-0.84 0.05,1.38 -2.31,1.11 -2.81,0.84z"/>
 </g>
</svg>
